HIERARCHY
ROOT Hips
{
  OFFSET 84.2586 93.4049 34.6102
  CHANNELS 6 Xposition Yposition Zposition Zrotation Xrotation Yrotation
  JOINT Spine
  {
    OFFSET 0 7.39538 0
    CHANNELS 6 Xposition Yposition Zposition Zrotation Xrotation Yrotation
    JOINT Spine1
    {
      OFFSET 0 7.39538 0
      CHANNELS 6 Xposition Yposition Zposition Zrotation Xrotation Yrotation
      JOINT Spine2
      {
        OFFSET 0 7.39539 0
        CHANNELS 6 Xposition Yposition Zposition Zrotation Xrotation Yrotation
        JOINT Spine3
        {
          OFFSET 0 7.39538 0
          CHANNELS 6 Xposition Yposition Zposition Zrotation Xrotation Yrotation
          JOINT Neck
          {
            OFFSET 0.000293422 15.7152 -0.000161699
            CHANNELS 6 Xposition Yposition Zposition Zrotation Xrotation Yrotation
            JOINT Head
            {
              OFFSET 2.23513e-05 9.98377 0
              CHANNELS 6 Xposition Yposition Zposition Zrotation Xrotation Yrotation
              End Site
              {
                OFFSET 0 18.7195 0
              }
            }
          }
          JOINT LeftShoulder
          {
            OFFSET 5.00031 16.9999 -0.000173409
            CHANNELS 6 Xposition Yposition Zposition Zrotation Xrotation Yrotation
            JOINT LeftShoulder2
            {
              OFFSET 7 0 0
              CHANNELS 6 Xposition Yposition Zposition Zrotation Xrotation Yrotation
              JOINT LeftArm
              {
                OFFSET 7 -9.41238e-05 0
                CHANNELS 6 Xposition Yposition Zposition Zrotation Xrotation Yrotation
                JOINT LeftForeArm
                {
                  OFFSET 0 -38.5116 -1.99999
                  CHANNELS 6 Xposition Yposition Zposition Zrotation Xrotation Yrotation
                  JOINT LeftHand
                  {
                    OFFSET 0 -30.4884 2
                    CHANNELS 6 Xposition Yposition Zposition Zrotation Xrotation Yrotation
                    JOINT LeftHandThumb1
                    {
                      OFFSET -0.500002 -1.5 2.65
                      CHANNELS 6 Xposition Yposition Zposition Zrotation Xrotation Yrotation
                      JOINT LeftHandThumb2
                      {
                        OFFSET -1.3168e-05 -3.79999 3.7
                        CHANNELS 6 Xposition Yposition Zposition Zrotation Xrotation Yrotation
                        JOINT LeftHandThumb3
                        {
                          OFFSET 0 -3 2.7
                          CHANNELS 6 Xposition Yposition Zposition Zrotation Xrotation Yrotation
                          End Site
                          {
                            OFFSET 1.72211e-05 -2.3 1.8
                          }
                        }
                      }
                    }
                    JOINT LeftHandIndex
                    {
                      OFFSET 0 -1.9 1.6
                      CHANNELS 6 Xposition Yposition Zposition Zrotation Xrotation Yrotation
                      JOINT LeftHandIndex1
                      {
                        OFFSET -1.04071e-05 -8.29999 1.9
                        CHANNELS 6 Xposition Yposition Zposition Zrotation Xrotation Yrotation
                        JOINT LeftHandIndex2
                        {
                          OFFSET 1.28134e-05 -4.50001 0
                          CHANNELS 6 Xposition Yposition Zposition Zrotation Xrotation Yrotation
                          JOINT LeftHandIndex3
                          {
                            OFFSET -1.14343e-05 -3.4 0
                            CHANNELS 6 Xposition Yposition Zposition Zrotation Xrotation Yrotation
                            End Site
                            {
                              OFFSET 0 -2.6 0
                            }
                          }
                        }
                      }
                    }
                    JOINT LeftHandMiddle
                    {
                      OFFSET -0.250003 -2.2 0.399998
                      CHANNELS 6 Xposition Yposition Zposition Zrotation Xrotation Yrotation
                      JOINT LeftHandMiddle1
                      {
                        OFFSET -1.33565e-05 -8.3 1.00001
                        CHANNELS 6 Xposition Yposition Zposition Zrotation Xrotation Yrotation
                        JOINT LeftHandMiddle2
                        {
                          OFFSET 0 -4.65 0
                          CHANNELS 6 Xposition Yposition Zposition Zrotation Xrotation Yrotation
                          JOINT LeftHandMiddle3
                          {
                            OFFSET 0 -3.3 0
                            CHANNELS 6 Xposition Yposition Zposition Zrotation Xrotation Yrotation
                            End Site
                            {
                              OFFSET 0 -2.7 0
                            }
                          }
                        }
                      }
                    }
                    JOINT LeftHandRing
                    {
                      OFFSET -0.50002 -2.15 -0.799995
                      CHANNELS 6 Xposition Yposition Zposition Zrotation Xrotation Yrotation
                      JOINT LeftHandRing1
                      {
                        OFFSET 1.50333e-05 -7.75 -0.200004
                        CHANNELS 6 Xposition Yposition Zposition Zrotation Xrotation Yrotation
                        JOINT LeftHandRing2
                        {
                          OFFSET 0 -3.79999 0
                          CHANNELS 6 Xposition Yposition Zposition Zrotation Xrotation Yrotation
                          JOINT LeftHandRing3
                          {
                            OFFSET 0 -3.4 0
                            CHANNELS 6 Xposition Yposition Zposition Zrotation Xrotation Yrotation
                            End Site
                            {
                              OFFSET 0 -2.6 0
                            }
                          }
                        }
                      }
                    }
                    JOINT LeftHandPinky
                    {
                      OFFSET -0.750017 -1.74999 -1.85
                      CHANNELS 6 Xposition Yposition Zposition Zrotation Xrotation Yrotation
                      JOINT LeftHandPinky1
                      {
                        OFFSET 0 -7.15001 -0.999992
                        CHANNELS 6 Xposition Yposition Zposition Zrotation Xrotation Yrotation
                        JOINT LeftHandPinky2
                        {
                          OFFSET 0 -3 0
                          CHANNELS 6 Xposition Yposition Zposition Zrotation Xrotation Yrotation
                          JOINT LeftHandPinky3
                          {
                            OFFSET 0 -2.34999 0
                            CHANNELS 6 Xposition Yposition Zposition Zrotation Xrotation Yrotation
                            End Site
                            {
                              OFFSET 0 -2.10001 0
                            }
                          }
                        }
                      }
                    }
                  }
                }
              }
            }
          }
          JOINT RightShoulder
          {
            OFFSET -4.99969 17.0001 -0.000183503
            CHANNELS 6 Xposition Yposition Zposition Zrotation Xrotation Yrotation
            JOINT RightShoulder2
            {
              OFFSET -7 0 0
              CHANNELS 6 Xposition Yposition Zposition Zrotation Xrotation Yrotation
              JOINT RightArm
              {
                OFFSET -7.00001 5.28109e-05 2.92896e-05
                CHANNELS 6 Xposition Yposition Zposition Zrotation Xrotation Yrotation
                JOINT RightForeArm
                {
                  OFFSET 0 -38.5116 -2.00001
                  CHANNELS 6 Xposition Yposition Zposition Zrotation Xrotation Yrotation
                  JOINT RightHand
                  {
                    OFFSET 1.27636e-05 -30.4884 2.00001
                    CHANNELS 6 Xposition Yposition Zposition Zrotation Xrotation Yrotation
                    JOINT RightHandThumb1
                    {
                      OFFSET 0.500001 -1.49999 2.65
                      CHANNELS 6 Xposition Yposition Zposition Zrotation Xrotation Yrotation
                      JOINT RightHandThumb2
                      {
                        OFFSET 0 -3.8 3.7
                        CHANNELS 6 Xposition Yposition Zposition Zrotation Xrotation Yrotation
                        JOINT RightHandThumb3
                        {
                          OFFSET 0 -3 2.7
                          CHANNELS 6 Xposition Yposition Zposition Zrotation Xrotation Yrotation
                          End Site
                          {
                            OFFSET 0 -2.3 1.8
                          }
                        }
                      }
                    }
                    JOINT RightHandIndex
                    {
                      OFFSET 0 -1.9 1.6
                      CHANNELS 6 Xposition Yposition Zposition Zrotation Xrotation Yrotation
                      JOINT RightHandIndex1
                      {
                        OFFSET 0 -8.3 1.9
                        CHANNELS 6 Xposition Yposition Zposition Zrotation Xrotation Yrotation
                        JOINT RightHandIndex2
                        {
                          OFFSET 0 -4.49999 0
                          CHANNELS 6 Xposition Yposition Zposition Zrotation Xrotation Yrotation
                          JOINT RightHandIndex3
                          {
                            OFFSET 0 -3.40001 0
                            CHANNELS 6 Xposition Yposition Zposition Zrotation Xrotation Yrotation
                            End Site
                            {
                              OFFSET 0 -2.59999 0
                            }
                          }
                        }
                      }
                    }
                    JOINT RightHandMiddle
                    {
                      OFFSET 0.249994 -2.19999 0.399994
                      CHANNELS 6 Xposition Yposition Zposition Zrotation Xrotation Yrotation
                      JOINT RightHandMiddle1
                      {
                        OFFSET 0 -8.29999 1
                        CHANNELS 6 Xposition Yposition Zposition Zrotation Xrotation Yrotation
                        JOINT RightHandMiddle2
                        {
                          OFFSET 0 -4.65001 0
                          CHANNELS 6 Xposition Yposition Zposition Zrotation Xrotation Yrotation
                          JOINT RightHandMiddle3
                          {
                            OFFSET -1.4807e-05 -3.3 0
                            CHANNELS 6 Xposition Yposition Zposition Zrotation Xrotation Yrotation
                            End Site
                            {
                              OFFSET 0 -2.7 0
                            }
                          }
                        }
                      }
                    }
                    JOINT RightHandRing
                    {
                      OFFSET 0.499996 -2.14999 -0.800004
                      CHANNELS 6 Xposition Yposition Zposition Zrotation Xrotation Yrotation
                      JOINT RightHandRing1
                      {
                        OFFSET 0 -7.75001 -0.199994
                        CHANNELS 6 Xposition Yposition Zposition Zrotation Xrotation Yrotation
                        JOINT RightHandRing2
                        {
                          OFFSET 0 -3.8 0
                          CHANNELS 6 Xposition Yposition Zposition Zrotation Xrotation Yrotation
                          JOINT RightHandRing3
                          {
                            OFFSET 0 -3.39999 0
                            CHANNELS 6 Xposition Yposition Zposition Zrotation Xrotation Yrotation
                            End Site
                            {
                              OFFSET 1.24368e-05 -2.60001 0
                            }
                          }
                        }
                      }
                    }
                    JOINT RightHandPinky
                    {
                      OFFSET 0.749994 -1.75 -1.85
                      CHANNELS 6 Xposition Yposition Zposition Zrotation Xrotation Yrotation
                      JOINT RightHandPinky1
                      {
                        OFFSET 0 -7.14999 -1
                        CHANNELS 6 Xposition Yposition Zposition Zrotation Xrotation Yrotation
                        JOINT RightHandPinky2
                        {
                          OFFSET 0 -3 0
                          CHANNELS 6 Xposition Yposition Zposition Zrotation Xrotation Yrotation
                          JOINT RightHandPinky3
                          {
                            OFFSET 0 -2.35 0
                            CHANNELS 6 Xposition Yposition Zposition Zrotation Xrotation Yrotation
                            End Site
                            {
                              OFFSET 0 -2.10001 0
                            }
                          }
                        }
                      }
                    }
                  }
                }
              }
            }
          }
        }
      }
    }
  }
  JOINT LeftUpLeg
  {
    OFFSET 8 0 0
    CHANNELS 6 Xposition Yposition Zposition Zrotation Xrotation Yrotation
    JOINT LeftLeg
    {
      OFFSET 0 -46.3081 -0.999996
      CHANNELS 6 Xposition Yposition Zposition Zrotation Xrotation Yrotation
      JOINT LeftFoot
      {
        OFFSET 0 -42.1919 -1.99999
        CHANNELS 6 Xposition Yposition Zposition Zrotation Xrotation Yrotation
        JOINT LeftToeBase
        {
          OFFSET 0 -7.5 12.5
          CHANNELS 6 Xposition Yposition Zposition Zrotation Xrotation Yrotation
          JOINT LeftFootToe
          {
            OFFSET 0 0 4
            CHANNELS 6 Xposition Yposition Zposition Zrotation Xrotation Yrotation
            End Site
            {
              OFFSET 0 0 0
            }
          }
        }
      }
    }
  }
  JOINT RightUpLeg
  {
    OFFSET -8 0 0
    CHANNELS 6 Xposition Yposition Zposition Zrotation Xrotation Yrotation
    JOINT RightLeg
    {
      OFFSET 0 -46.3081 -1.00001
      CHANNELS 6 Xposition Yposition Zposition Zrotation Xrotation Yrotation
      JOINT RightFoot
      {
        OFFSET 0 -42.1919 -2
        CHANNELS 6 Xposition Yposition Zposition Zrotation Xrotation Yrotation
        JOINT RightToeBase
        {
          OFFSET 0 -7.50001 12.5
          CHANNELS 6 Xposition Yposition Zposition Zrotation Xrotation Yrotation
          JOINT RightFootToe
          {
            OFFSET 0 0 4
            CHANNELS 6 Xposition Yposition Zposition Zrotation Xrotation Yrotation
            End Site
            {
              OFFSET 0 0 0
            }
          }
        }
      }
    }
  }
}
MOTION
Frames:	3
Frame Time:	0.0111111
88.5878 92.9829 33.1089 -15.6352 -18.0524 91.4464 0 7.39538 -7.10543e-15 -19.6687 16.849 -0.838956 0 7.39538 0 -6.17223 6.3807 -9.36897 -1.42109e-14 7.39538 7.10543e-15 1.56283 7.66262 -2.10425 0 7.39538 -7.10543e-15 1.9254 9.04063 -0.385859 -1.42109e-14 15.7152 -1.42109e-14 -2.04398 0.541625 10.027 -1.42109e-14 9.98376 -7.54952e-15 -4.8862 0.69315 23.5563 5 17 -1.06581e-14 7.86297 -0.732505 -10.5948 7 2.84217e-14 -1.06581e-14 7.86434 -0.724446 -10.5939 7 2.84217e-14 7.10543e-15 81.3727 -50.3901 71.421 3.55271e-15 -38.5116 -2 -66.956 -31.4751 -42.3568 1.42109e-14 -30.4884 2 11.9627 13.8937 -10.9519 -0.5 -1.5 2.65 5.03623 4.99189 3.11101 1.42109e-14 -3.8 3.7 0.123259 2.35891 -0.0244001 0 -3 2.7 0.0466798 45.0181 -0.208288 0 -1.9 1.6 -1.40738e-06 -2.62902e-06 -2.53989e-06 0 -8.3 1.9 -0.162706 -1.99379 0.0959114 0 -4.5 0 -4.44449e-07 0.00351313 0.00265889 -2.84217e-14 -3.4 -1.42109e-14 2.99944e-06 0.00344319 0.00263895 -0.25 -2.2 0.4 -1.40738e-06 -2.62902e-06 -2.53989e-06 -1.42109e-14 -8.3 1 0.0877687 -0.362908 0.0873691 -1.42109e-14 -4.65 1.42109e-14 3.05201e-06 -1.5344e-05 2.13067e-06 0 -3.3 0 -3.95039e-06 7.27236e-07 -8.12555e-06 -0.5 -2.15 -0.8 -1.40738e-06 -2.62902e-06 -2.53989e-06 1.42109e-14 -7.75 -0.2 -0.105927 -2.78215 -0.0381898 0 -3.8 -1.42109e-14 -0.000203805 0.000785989 -0.00445432 0 -3.4 1.42109e-14 7.96357e-06 0.0130409 0.0115991 -0.75 -1.75 -1.85 -1.40738e-06 -2.62902e-06 -2.53989e-06 1.42109e-14 -7.15 -1 -0.0439988 -1.32555 -0.0750835 1.42109e-14 -3 1.42109e-14 -0.00014175 0.00343777 0.00456164 -1.42109e-14 -2.35 0 -5.19769e-06 0.00336177 0.00451383 -5 17 -7.10543e-15 -2.82899 -0.215775 8.74718 -7 0 8.88178e-16 -2.83006 -0.221162 8.74616 -7 0 -1.42109e-14 -31.4697 -40.8368 -48.8407 0 -38.5116 -2 92.9277 -62.2071 42.648 0 -30.4884 2 -45.2329 -21.8198 40.7005 0.5 -1.5 2.65 18.3635 21.4201 -2.72907 -1.42109e-14 -3.8 3.7 0.854954 11.0768 -0.081487 -1.42109e-14 -3 2.7 0.0575698 17.8402 -0.0531326 0 -1.9 1.6 4.38016e-06 -1.891e-07 -4.93968e-07 0 -8.3 1.9 13.8051 3.28427 -0.47621 -1.42109e-14 -4.5 -7.10543e-15 5.02203 -0.000970881 0.208363 0 -3.4 -7.10543e-15 4.69774 -0.0642436 -0.0014102 0.25 -2.2 0.4 4.38016e-06 -1.891e-07 -4.93968e-07 7.10543e-15 -8.3 1 12.8491 1.70235 -0.417686 0 -4.65 7.10543e-15 2.154 -0.0229904 0.0177445 0 -3.3 0 2.09195 -0.527836 0.0110737 0.5 -2.15 -0.8 4.38016e-06 -1.891e-07 -4.93968e-07 1.42109e-14 -7.75 -0.2 12.5102 0.0368697 -0.486867 1.42109e-14 -3.8 0 0.00553726 -0.00561513 0.266564 1.42109e-14 -3.4 -7.10543e-15 -0.0205172 -0.00555385 0.258671 0.75 -1.75 -1.85 4.38016e-06 -1.891e-07 -4.93968e-07 1.42109e-14 -7.15 -1 11.9398 -20.2686 -0.673104 1.42109e-14 -3 0 0.00111134 -0.00499921 2.9629e-07 0 -2.35 0 0.00111892 -0.0047159 -2.40243e-06 8 1.42109e-14 7.10543e-15 29.4814 -39.137 12.4712 7.10543e-15 -46.3081 -1 -1.61008 35.7017 5.87684 0 -42.1919 -2 -6.09751 -10.6447 3.56597 -7.10543e-15 -7.5 12.5 -3.6123e-08 -2.26467e-11 1.28983e-06 7.10543e-15 -1.0842e-19 4 4.12385 6.69308 -0.00138463 -8 1.42109e-14 -7.10543e-15 21.6448 -24.0208 -6.25969 0 -46.3081 -1 0.0286032 9.97131 -0.610372 -3.55271e-15 -42.1919 -2 -3.85677 -3.04568 49.2696 0 -7.5 12.5 -4.37545e-09 0.0370975 -4.22787e-06 -1.42109e-14 1.66533e-16 4 5.04757 -8.63822 0.0610743 
88.5917 92.987 33.1053 -15.6319 -18.053 91.4753 0 7.39538 7.10543e-15 -19.6656 16.8532 -0.844103 -1.42109e-14 7.39538 0 -6.16684 6.37438 -9.36464 -1.42109e-14 7.39538 -1.42109e-14 1.57046 7.67672 -2.10151 1.42109e-14 7.39538 7.10543e-15 1.93075 9.04826 -0.390461 -1.42109e-14 15.7152 5.32907e-15 -2.03636 0.534891 10.022 0 9.98376 -4.88498e-15 -4.86671 0.680035 23.5442 5 17 5.32907e-15 7.86176 -0.732087 -10.5953 7 0 -3.55271e-15 7.86305 -0.724751 -10.5941 7 0 7.10543e-15 81.3189 -50.4196 71.4136 1.77636e-15 -38.5116 -2 -66.9269 -31.5516 -42.4112 0 -30.4884 2 11.9844 13.8741 -10.9851 -0.5 -1.5 2.65 5.01057 5.04903 3.0701 -1.42109e-14 -3.8 3.7 0.12277 2.37546 -0.0243229 1.42109e-14 -3 2.7 0.0469135 44.9958 -0.208044 1.42109e-14 -1.9 1.6 -1.40738e-06 -2.62902e-06 -2.53989e-06 0 -8.3 1.9 -0.166889 -1.99437 0.0961579 0 -4.5 0 -4.44449e-07 0.00351313 0.00265889 0 -3.4 0 2.99944e-06 0.00344319 0.00263895 -0.25 -2.2 0.4 -1.40738e-06 -2.62902e-06 -2.53989e-06 0 -8.3 1 0.0881393 -0.355919 0.0876004 1.42109e-14 -4.65 -1.42109e-14 3.05201e-06 -1.5344e-05 2.13067e-06 1.42109e-14 -3.3 1.42109e-14 -3.95039e-06 7.27236e-07 -8.12555e-06 -0.5 -2.15 -0.8 -1.40738e-06 -2.62902e-06 -2.53989e-06 0 -7.75 -0.2 -0.106335 -2.77333 -0.0375772 0 -3.8 0 -0.000203805 0.000785989 -0.00445432 2.84217e-14 -3.4 1.42109e-14 7.96357e-06 0.0130409 0.0115991 -0.75 -1.75 -1.85 -1.40738e-06 -2.62902e-06 -2.53989e-06 -1.42109e-14 -7.15 -1 -0.0439107 -1.3207 -0.0750723 0 -3 0 -0.00014175 0.00343777 0.00456164 -1.42109e-14 -2.35 1.42109e-14 -5.19769e-06 0.00336177 0.00451383 -5 17 0 -2.83089 -0.215524 8.74694 -7 2.84217e-14 -3.55271e-15 -2.83094 -0.221055 8.74589 -7 0 0 -31.4341 -40.8427 -48.9171 -1.42109e-14 -38.5116 -2 93.0267 -62.1646 42.6746 0 -30.4884 2 -45.2343 -21.8198 40.7403 0.5 -1.5 2.65 18.3544 21.4205 -2.71226 0 -3.8 3.7 0.854327 11.0792 -0.081304 0 -3 2.7 0.0577023 17.83 -0.0531448 7.10543e-15 -1.9 1.6 4.38016e-06 -1.891e-07 -4.93968e-07 0 -8.3 1.9 13.8086 3.2905 -0.477461 1.42109e-14 -4.5 -7.10543e-15 5.01824 -0.000976169 0.208019 0 -3.4 -7.10543e-15 4.69442 -0.0643364 -0.0014102 0.25 -2.2 0.4 4.38016e-06 -1.891e-07 -4.93968e-07 0 -8.3 1 12.8491 1.70362 -0.41796 -1.42109e-14 -4.65 -1.42109e-14 2.1541 -0.0230857 0.0176795 0 -3.3 -7.10543e-15 2.09211 -0.526452 0.0110469 0.5 -2.15 -0.8 4.38016e-06 -1.891e-07 -4.93968e-07 7.10543e-15 -7.75 -0.2 12.5089 0.042633 -0.487161 0 -3.8 -1.42109e-14 0.00553722 -0.00561513 0.266103 1.42109e-14 -3.4 7.10543e-15 -0.0204103 -0.00555385 0.258225 0.75 -1.75 -1.85 4.38016e-06 -1.891e-07 -4.93968e-07 0 -7.15 -1 11.9407 -20.2466 -0.671506 0 -3 0 0.00111134 -0.00499921 2.9629e-07 0 -2.35 0 0.00111892 -0.0047159 -2.40243e-06 8 0 0 29.4612 -39.1401 12.4571 -3.55271e-15 -46.3081 -1 -1.61244 35.6844 5.8891 -7.10543e-15 -42.1919 -2 -6.08957 -10.6339 3.56216 0 -7.5 12.5 -3.6123e-08 -2.26467e-11 1.28983e-06 -7.10543e-15 5.42101e-20 4 4.11045 6.6934 -0.0013893 -8 0 7.10543e-15 21.6304 -24.0106 -6.27843 3.55271e-15 -46.3081 -1 0.0278251 9.94182 -0.605143 -3.55271e-15 -42.1919 -2 -3.84398 -3.03568 49.2826 -1.42109e-14 -7.5 12.5 -4.38783e-09 0.0369297 -4.22787e-06 0 -2.77556e-16 4 5.03729 -8.61778 0.0602144 
88.5959 92.9913 33.1018 -15.6284 -18.0531 91.5064 0 7.39538 7.10543e-15 -19.6621 16.8567 -0.84976 1.42109e-14 7.39538 -1.42109e-14 -6.16102 6.36842 -9.35994 -1.42109e-14 7.39538 -7.10543e-15 1.57792 7.69009 -2.09894 1.42109e-14 7.39538 7.10543e-15 1.93608 9.05334 -0.392796 0 15.7152 -5.32907e-15 -2.02855 0.527677 10.0182 1.42109e-14 9.98376 -8.88178e-15 -4.84668 0.665973 23.5345 5 17 -1.77636e-15 7.86055 -0.731639 -10.5958 7 0 3.55271e-15 7.86177 -0.725052 -10.5943 7 0 0 81.2629 -50.4498 71.3989 1.77636e-15 -38.5116 -2 -66.9074 -31.6054 -42.4556 0 -30.4884 2 12.0125 13.8505 -11.0395 -0.5 -1.5 2.65 4.99251 5.09131 3.04174 0 -3.8 3.7 0.122273 2.39418 -0.0242448 1.42109e-14 -3 2.7 0.0471354 44.9707 -0.20779 1.42109e-14 -1.9 1.6 -1.40738e-06 -2.62902e-06 -2.53989e-06 0 -8.3 1.9 -0.164182 -1.99132 0.0964039 -1.42109e-14 -4.5 0 -4.44449e-07 0.00351313 0.00265889 -1.42109e-14 -3.4 0 2.99944e-06 0.00344319 0.00263895 -0.25 -2.2 0.4 -1.40738e-06 -2.62902e-06 -2.53989e-06 0 -8.3 1 0.0885076 -0.349873 0.0878315 -1.42109e-14 -4.65 0 3.05201e-06 -1.5344e-05 2.13067e-06 1.42109e-14 -3.3 1.42109e-14 -3.95039e-06 7.27236e-07 -8.12555e-06 -0.5 -2.15 -0.8 -1.40738e-06 -2.62902e-06 -2.53989e-06 0 -7.75 -0.2 -0.106703 -2.76245 -0.0369656 -1.42109e-14 -3.8 0 -0.000203805 0.000785989 -0.00445432 0 -3.4 2.84217e-14 7.96357e-06 0.0130409 0.0115991 -0.75 -1.75 -1.85 -1.40738e-06 -2.62902e-06 -2.53989e-06 -1.42109e-14 -7.15 -1 -0.0438125 -1.30813 -0.0750606 -1.42109e-14 -3 0 -0.00014175 0.00343777 0.00456164 0 -2.35 1.42109e-14 -5.19769e-06 0.00336177 0.00451383 -5 17 3.55271e-15 -2.83147 -0.215298 8.74669 -7 2.84217e-14 -1.59872e-14 -2.83074 -0.22095 8.74565 -7 0 -3.55271e-15 -31.4065 -40.8421 -48.9902 -1.42109e-14 -38.5116 -2 93.1306 -62.1211 42.7068 0 -30.4884 2 -45.2404 -21.8254 40.771 0.5 -1.5 2.65 18.3464 21.4215 -2.69787 1.42109e-14 -3.8 3.7 0.853682 11.0803 -0.0811234 0 -3 2.7 0.0578336 17.8193 -0.0531552 0 -1.9 1.6 4.38016e-06 -1.891e-07 -4.93968e-07 -1.42109e-14 -8.3 1.9 13.8151 3.29697 -0.478805 0 -4.5 0 5.0135 -0.000981454 0.207675 0 -3.4 7.10543e-15 4.69027 -0.0644286 -0.0014102 0.25 -2.2 0.4 4.38016e-06 -1.891e-07 -4.93968e-07 0 -8.3 1 12.8513 1.7051 -0.418224 0 -4.65 7.10543e-15 2.15415 -0.0231804 0.0176147 1.42109e-14 -3.3 -7.10543e-15 2.09222 -0.525068 0.0110201 0.5 -2.15 -0.8 4.38016e-06 -1.891e-07 -4.93968e-07 -2.13163e-14 -7.75 -0.2 12.5092 0.0488947 -0.487462 -1.42109e-14 -3.8 -7.10543e-15 0.00553717 -0.00561513 0.265639 0 -3.4 7.10543e-15 -0.0203033 -0.00555385 0.257779 0.75 -1.75 -1.85 4.38016e-06 -1.891e-07 -4.93968e-07 0 -7.15 -1 11.941 -20.2198 -0.669419 2.84217e-14 -3 -7.10543e-15 0.00111134 -0.00499921 2.9629e-07 1.42109e-14 -2.35 0 0.00111892 -0.0047159 -2.40243e-06 8 1.42109e-14 1.42109e-14 29.4399 -39.1431 12.4438 -3.55271e-15 -46.3081 -1 -1.61452 35.6659 5.90056 -7.10543e-15 -42.1919 -2 -6.08133 -10.6223 3.5564 -7.10543e-15 -7.5 12.5 -3.6123e-08 -2.26467e-11 1.28983e-06 0 -2.1684e-19 4 4.09776 6.69373 -0.0013938 -8 0 -7.10543e-15 21.6153 -24.0003 -6.29638 0 -46.3081 -1 0.0268573 9.91188 -0.599094 7.10543e-15 -42.1919 -2 -3.83214 -3.02521 49.2933 0 -7.5 12.5 -4.40019e-09 0.0367622 -4.22787e-06 0 5.55112e-17 4 5.02564 -8.59404 0.0593623 
